<?xml version="1.0" encoding="utf-8"?>
<!-- Generator: Adobe Illustrator 25.2.0, SVG Export Plug-In . SVG Version: 6.00 Build 0)  -->
<svg version="1.1" id="레이어_1" xmlns="http://www.w3.org/2000/svg" xmlns:xlink="http://www.w3.org/1999/xlink" x="0px"
	 y="0px" viewBox="0 0 255 160" style="enable-background:new 0 0 255 160;" xml:space="preserve">
<g id="g916">
	<path id="path879" d="M9.3,117.1c-2.7-1-4.9-3-6.1-5.6c-0.9-1.9-1.1-5.1-0.5-7.2c0.8-2.8,3.5-5.8,6.2-6.7l1.3-0.5V95v-2.1l-1.4-0.5
		C6,91.5,3,89,1.5,86.1c-1.9-3.6-1.9-8.8,0-12.4C3,70.9,6,68.4,8.9,67.5l1.4-0.5v-2.1v-2.1L9,62.3c-2.7-1-5.4-3.9-6.2-6.7
		c-0.6-2.1-0.4-5.3,0.5-7.3c0.9-2,3.2-4.2,5.1-5.2c1.4-0.6,1.8-0.7,4.3-0.7s2.9,0.1,4.3,0.7c2,0.9,4.2,3.2,5.1,5.2
		c0.9,2,1.1,5.1,0.5,7.3c-0.8,2.9-3.5,5.8-6.2,6.7L15,62.8l0.1,2.1l0.1,2.1l1.4,0.4c1.9,0.5,3.2,1.2,5,2.6l1.5,1.2l1.1-0.6
		c0.6-0.3,1.5-0.9,2-1.2l0.9-0.6l0-2.8c0-2.4,0.1-3,0.8-4.3c0.9-2,3.2-4.2,5.2-5.2c1.4-0.6,1.8-0.7,4.3-0.7s2.9,0.1,4.3,0.7
		c2,0.9,4.2,3.2,5.2,5.2c0.6,1.4,0.7,1.8,0.7,4.3s-0.1,2.9-0.7,4.3c-0.9,2-3.2,4.2-5.2,5.2c-1.4,0.6-1.8,0.7-4.3,0.7
		c-3.1,0-4.4-0.4-6.5-2.1l-1.1-0.9l-2,1.1l-2,1.1l0.2,1.1c0.3,1.4,0.3,5.5,0,6.8l-0.2,1l2,1.2l2,1.2l1.1-0.9c2-1.7,3.4-2.1,6.5-2.1
		c2.5,0,2.9,0.1,4.3,0.7c2,0.9,4.2,3.2,5.2,5.2c0.6,1.4,0.7,1.8,0.7,4.3s-0.1,2.9-0.7,4.3c-0.9,2-3.2,4.2-5.2,5.2
		c-1.4,0.6-1.8,0.7-4.3,0.7s-2.9-0.1-4.3-0.7c-2-0.9-4.2-3.2-5.2-5.2c-0.6-1.4-0.7-1.8-0.7-4.4v-2.8l-1.9-1.1c-1-0.6-2-1.1-2.1-1.1
		s-0.8,0.5-1.6,1.2c-1.8,1.4-3.1,2.1-4.9,2.6l-1.4,0.4L15.1,95L15,97.1l1.3,0.5c2.7,1,5.4,3.9,6.2,6.7c0.6,2.1,0.4,5.3-0.5,7.3
		c-0.9,2-3.2,4.2-5.1,5.1C14.9,117.7,11.4,117.8,9.3,117.1L9.3,117.1z M14.6,111.7c3.1-1.3,3.8-5.6,1.3-7.9c-3.1-2.9-8-0.7-8,3.5
		c0,2.7,2,4.7,4.7,4.7C13.2,112,14.1,111.9,14.6,111.7L14.6,111.7z M39.2,98.2c3.1-1.3,3.8-5.6,1.3-7.9c-3.1-2.9-8-0.7-8,3.5
		c0,2.7,2,4.7,4.7,4.7C37.8,98.6,38.7,98.4,39.2,98.2L39.2,98.2z M15.7,87c1.7-0.6,3.8-2.7,4.4-4.4c1-2.9,0.3-5.8-1.8-8
		c-3-3-7.6-3-10.6,0c-2.1,2.1-2.8,5-1.8,8c0.6,1.7,2.7,3.8,4.3,4.4C11.9,87.6,14.1,87.6,15.7,87L15.7,87z M39.2,70.5
		c3.1-1.3,3.8-5.6,1.3-7.9c-3.1-2.9-8-0.7-8,3.5c0,2.7,2,4.7,4.7,4.7C37.8,70.8,38.7,70.7,39.2,70.5z M14.6,57
		c3.1-1.3,3.8-5.6,1.3-7.9c-3.1-2.9-8-0.7-8,3.5c0,2.7,2,4.7,4.7,4.7C13.2,57.3,14.1,57.2,14.6,57z M193.6,117.2
		c-0.7-0.5-1.3-1.4-1.3-2.1c0-0.7,0.9-0.4,1.5,0.5c0.4,0.7,0.7,0.9,1.5,0.9c1.3,0.1,2.1-0.6,2.3-2l0.2-1.1l-0.8,0.4
		c-3,1.6-5.8-1.4-4.4-4.7c0.2-0.5,0.7-1.1,1.2-1.3c1-0.5,2.7-0.5,3.4,0c0.5,0.4,0.6,0.4,0.6,0c0-0.2,0.2-0.4,0.5-0.4
		c0.5,0,0.5,0.2,0.5,4.2v4.2l-0.7,0.8c-0.6,0.7-1,0.9-2.2,0.9C194.7,117.6,194.2,117.5,193.6,117.2L193.6,117.2z M196.9,112.6
		c0.4-0.3,0.6-0.9,0.7-1.7c0.1-1.1,0-1.3-0.5-1.9c-1.5-1.5-3.6-0.5-3.6,1.6C193.4,112.7,195.4,113.8,196.9,112.6z M205.3,112.4
		c0-5,0-5.2,0.5-5.2c0.3,0,0.5,0.2,0.5,0.4c0,0.4,0.1,0.4,0.6,0c0.7-0.5,2.4-0.5,3.4,0c0.4,0.2,0.9,0.8,1.2,1.3
		c1.5,3.1-1.4,6.3-4.3,4.8l-0.8-0.4v2.1c0,1.9,0,2.1-0.5,2.1C205.3,117.6,205.3,117.4,205.3,112.4L205.3,112.4z M210,112.5
		c0.8-0.8,0.9-2.4,0.1-3.4c-0.7-1-2.1-1-3.1,0c-0.6,0.6-0.7,0.8-0.5,1.9C206.7,113,208.6,113.8,210,112.5L210,112.5z M72,113.3
		c-1.7-1.5-1.5-4.5,0.2-5.6c1-0.6,2.7-0.7,3.5-0.1l0.6,0.4v-2.9c0-2.7,0-2.9,0.5-2.9c0.5,0,0.5,0.2,0.5,5.8c0,5.6,0,5.8-0.5,5.8
		c-0.3,0-0.5-0.1-0.5-0.3c0-0.2-0.3-0.1-0.8,0.1C74.3,114.4,73.1,114.3,72,113.3L72,113.3z M75.6,112.6c0.4-0.3,0.6-0.9,0.7-1.7
		c0.1-1.1,0-1.3-0.5-1.9c-1.5-1.5-3.6-0.5-3.6,1.6C72.1,112.7,74.1,113.8,75.6,112.6L75.6,112.6z M83.3,113.8
		c-0.7-0.4-1.1-1.2-0.6-1.6c0.2-0.1,0.6,0,0.9,0.3c0.6,0.6,1.2,0.7,1.7,0.2c0.6-0.6,0.3-1.2-1.1-2c-1.1-0.6-1.4-0.9-1.5-1.5
		c-0.1-1.2,0.6-2,1.8-2c0.9,0,1.9,0.6,1.9,1.1c0,0.3-0.8,0.4-1.3,0.2c-0.3-0.2-0.7-0.2-0.9-0.1c-0.8,0.3-0.5,1,0.7,1.5
		c1.6,0.7,2.2,1.6,1.8,2.7c-0.2,0.5-0.5,1-0.8,1.2C85.4,114.2,84.1,114.2,83.3,113.8L83.3,113.8z M103.2,113.7
		c-0.4-0.2-0.7-0.3-0.7-0.1c0,0.1-0.3,0.3-0.7,0.3h-0.7l0.1-5.7c0.1-5.7,0.1-5.7,0.7-5.8c0.6-0.1,0.6,0,0.6,2.9v2.9l0.6-0.4
		c1.6-1.1,4.2-0.1,4.7,2C108.6,112.7,105.9,115.2,103.2,113.7L103.2,113.7z M106.1,112.5c1.4-1.4,0.5-4.1-1.5-4.1
		c-0.5,0-1.1,0.2-1.5,0.6c-1.4,1.4-0.5,4.1,1.5,4.1C105.2,113.1,105.7,112.9,106.1,112.5L106.1,112.5z M110.6,113.9
		c-1-0.6-1.2-1-1.2-3.8c0-2.5,0-2.7,0.5-2.7c0.5,0,0.5,0.2,0.5,2.5c0,2.7,0.3,3.3,1.5,3.3c1.1,0,1.4-0.7,1.4-3.3
		c0-2.5,0-2.5,0.7-2.5c0.7,0,0.7,0,0.7,2.2c0,1.2-0.1,2.6-0.3,3C113.9,113.9,111.9,114.6,110.6,113.9z M122.1,113.6
		c-1-0.6-1.4-1.4-1.4-3.2c0-1.2,0.1-1.4,0.9-2.2c0.7-0.7,1.1-0.9,2-0.9c2,0,3.2,1.1,3.2,2.9v0.8h-2.5c-1.4,0-2.5,0.1-2.5,0.1
		c0,0.4,0.8,1.7,1.2,1.8c0.9,0.3,1.7,0.1,2.3-0.5c0.4-0.4,0.8-0.6,1-0.5c0.5,0.2,0.5,0.2,0.2,0.9
		C125.9,114.1,123.6,114.5,122.1,113.6L122.1,113.6z M125.6,109.6c-0.7-1.3-2.1-1.7-3.1-0.8c-1,0.9-0.6,1.1,1.4,1.1
		C125.4,109.9,125.8,109.8,125.6,109.6L125.6,109.6z M130,113.8c-2.2-1.1-2.3-4.9-0.3-6.1c0.9-0.6,2.6-0.6,3.4,0l0.6,0.4v-2.9
		c0-2.9,0-2.9,0.6-2.9c0.6,0.1,0.6,0.1,0.7,5.8l0.1,5.7h-0.7c-0.4,0-0.7-0.1-0.7-0.3c0-0.2-0.3-0.1-0.8,0.1
		C132,114.2,130.9,114.3,130,113.8z M133.1,112.5c0.8-0.8,0.9-2.4,0.1-3.4c-0.7-0.9-2.1-1-3,0c-1.4,1.4-0.5,4.1,1.5,4.1
		C132.1,113.1,132.6,112.9,133.1,112.5z M141.5,113.5c-0.8-0.7-0.9-1.1-0.3-1.3c0.3-0.1,0.6,0,0.9,0.4c0.6,0.6,1.3,0.7,1.8,0.1
		c0.4-0.5,0.1-1.2-1-1.7c-1.3-0.6-1.7-1.1-1.7-2c0-1.1,0.7-1.7,1.9-1.7c1.2,0,2,0.8,1.4,1.3c-0.3,0.2-0.5,0.2-0.9,0
		c-0.3-0.2-0.7-0.2-0.9-0.2c-0.7,0.3-0.5,1,0.3,1.3c1.7,0.7,2.2,1.2,2.2,2.3C145.3,114,143,114.9,141.5,113.5L141.5,113.5z
		 M157,113.6c-1-0.6-1.4-1.4-1.4-3.2c0-1.2,0.1-1.4,0.9-2.2c0.7-0.7,1.1-0.9,2-0.9c2,0,3.2,1.1,3.2,2.9v0.8h-2.5
		c-1.4,0-2.5,0.1-2.5,0.1c0,0.4,0.8,1.7,1.2,1.8c0.9,0.3,1.7,0.1,2.3-0.5c0.4-0.4,0.8-0.6,1-0.5c0.5,0.2,0.5,0.2,0.2,0.9
		C160.8,114.1,158.5,114.5,157,113.6z M160.5,109.6c-0.7-1.3-2.1-1.7-3.1-0.8c-1,0.9-0.6,1.1,1.4,1.1
		C160.2,109.9,160.6,109.8,160.5,109.6z M164,113.3c-1.7-1.5-1.5-4.5,0.2-5.6c1-0.6,2.7-0.7,3.5-0.1c0.5,0.4,0.6,0.4,0.6,0
		c0-0.2,0.2-0.4,0.5-0.4c0.5,0,0.5,0.2,0.5,3.3s0,3.3-0.5,3.3c-0.3,0-0.5-0.1-0.5-0.3c0-0.2-0.3-0.1-0.8,0.1
		C166.3,114.4,165,114.3,164,113.3L164,113.3z M167.5,112.6c0.4-0.3,0.6-0.9,0.7-1.7c0.1-1.1,0-1.3-0.5-1.9
		c-1.5-1.5-3.6-0.5-3.6,1.6C164.1,112.7,166,113.8,167.5,112.6z M217.4,113.7c-1-0.5-1.5-1.7-1.5-3.3c0-1.2,0.1-1.5,0.9-2.3
		c0.7-0.7,1.1-0.9,2.1-0.9c0.6,0,1.4,0.2,1.7,0.4c0.5,0.3,0.6,0.3,0.7,0c0.1-0.2,0.4-0.4,0.7-0.4c0.5,0,0.5,0.2,0.5,3.3v3.3h-0.7
		c-0.4,0-0.7-0.1-0.7-0.3c0-0.2-0.3-0.1-0.6,0.1C219.9,114.3,218.4,114.3,217.4,113.7L217.4,113.7z M220.5,112.5
		c1.5-1.3,0.6-4.1-1.3-4.1c-1.7,0-2.7,1.7-2,3.4C217.8,113.2,219.3,113.5,220.5,112.5L220.5,112.5z M234.8,113.9
		c-2.4-1-2.6-4.9-0.4-6.2c0.9-0.6,2.7-0.6,3.7,0c2.2,1.1,2.1,5-0.2,6.1C237,114.2,235.6,114.3,234.8,113.9L234.8,113.9z
		 M237.8,112.3c0.9-0.9,1-1.8,0.4-2.9c-0.4-0.9-0.9-1.1-2.1-1.1c-2,0-2.9,2.8-1.4,4.1C235.8,113.3,236.9,113.3,237.8,112.3
		L237.8,112.3z M56.3,113.6c0.4-1.1,4.6-10.6,4.7-10.6c0.1,0,4,8.8,4.7,10.6c0.1,0.1-0.2,0.2-0.6,0.2c-0.6-0.1-0.8-0.3-1.3-1.5
		l-0.6-1.4l-2.3,0l-2.3,0l-0.6,1.5c-0.5,1.2-0.7,1.5-1.3,1.5C56.5,113.9,56.3,113.8,56.3,113.6z M62.6,109.7c0-0.3-1.4-3.8-1.6-3.8
		c-0.1,0-1.6,3.4-1.6,3.8c0,0.1,0.7,0.2,1.6,0.2C61.9,109.9,62.6,109.8,62.6,109.7z M79.5,110.6c0-3.1,0-3.3,0.5-3.3
		s0.5,0.2,0.5,3.3s0,3.3-0.5,3.3S79.5,113.7,79.5,110.6z M89,111.1c0-2.3-0.1-2.8-0.4-2.8c-0.2,0-0.4-0.2-0.4-0.5s0.2-0.5,0.4-0.5
		c0.3,0,0.4-0.3,0.4-1.2c0-1,0.1-1.2,0.5-1.2s0.5,0.2,0.5,1.2c0,1.1,0.1,1.2,0.7,1.2c0.9,0,0.9,1,0.1,1.1c-0.6,0.1-0.6,0.2-0.7,2.8
		c-0.1,2.5-0.1,2.7-0.6,2.7C89.1,113.9,89,113.7,89,111.1z M93,110.6c0-3.1,0-3.3,0.5-3.3c0.3,0,0.5,0.1,0.5,0.3
		c0,0.2,0.2,0.2,0.5,0c0.6-0.3,1.8-0.4,2-0.1c0.2,0.4-0.5,1-1.1,1c-0.9,0-1.3,1-1.3,3.4c0,1.9,0,2-0.5,2C93,113.9,93,113.7,93,110.6
		z M98,110.6c0-3.1,0-3.3,0.5-3.3s0.5,0.2,0.5,3.3s0,3.3-0.5,3.3S98,113.7,98,110.6z M117.1,111.1c0-1.7-0.1-2.8-0.3-2.8
		c-0.1,0-0.3-0.2-0.3-0.5s0.1-0.5,0.3-0.5s0.3-0.5,0.3-1.2c0-1.1,0.1-1.2,0.7-1.2c0.6,0,0.7,0.1,0.7,1.2c0,1,0.1,1.2,0.5,1.2
		c0.4,0,0.5,0.2,0.5,0.5s-0.2,0.5-0.5,0.5c-0.5,0-0.5,0.2-0.5,2.8v2.8h-0.7h-0.7V111.1z M147.4,111.2c0-2.1-0.1-2.7-0.4-2.8
		c-0.2-0.1-0.4-0.4-0.4-0.7c0-0.3,0.2-0.5,0.4-0.5c0.3,0,0.4-0.3,0.4-1.2c0-1,0.1-1.2,0.5-1.2c0.5,0,0.5,0.2,0.5,1.2
		s0.1,1.2,0.5,1.2c0.4,0,0.5,0.2,0.5,0.5s-0.2,0.5-0.5,0.5c-0.5,0-0.5,0.2-0.5,2.8s0,2.8-0.5,2.8
		C147.5,113.9,147.4,113.7,147.4,111.2z M151.1,110.6v-3.3h0.7c0.4,0,0.7,0.1,0.7,0.3c0,0.2,0.1,0.2,0.3,0c0.2-0.2,0.7-0.3,1.2-0.3
		c0.7,0,0.9,0.1,0.7,0.4c-0.1,0.2-0.2,0.5-0.2,0.5s-0.4,0.1-0.8,0.1c-1.1,0-1.3,0.6-1.3,3.3c0,2.2,0,2.3-0.7,2.3h-0.7V110.6z
		 M171.2,110.6v-3.3h0.7c0.4,0,0.7,0.1,0.7,0.3c0,0.2,0.1,0.2,0.3,0c0.4-0.4,1.8-0.4,2.5,0.1c0.4,0.3,0.6,0.3,1,0
		c0.9-0.6,2.4-0.5,3,0.3c0.5,0.6,0.5,1.1,0.5,3.3c0,2.4,0,2.6-0.5,2.6c-0.5,0-0.5-0.2-0.5-2.1c0-2.7-0.3-3.5-1.3-3.5
		c-1.1,0-1.3,0.6-1.3,3.3c0,2.2,0,2.3-0.7,2.3c-0.7,0-0.7,0-0.7-2.4c0-2.9-0.1-3.2-1.1-3.2c-1.1,0-1.3,0.6-1.3,3.3
		c0,2.2,0,2.3-0.7,2.3h-0.7V110.6z M182.1,110.6v-3.3h0.7h0.7v3.3v3.3h-0.7h-0.7V110.6z M185.5,110.6c0-3.1,0-3.3,0.5-3.3
		c0.3,0,0.6,0.1,0.6,0.3c0.1,0.3,0.2,0.3,0.5,0c0.5-0.5,2.2-0.4,2.9,0.2c0.6,0.5,0.6,0.7,0.7,3.3l0.1,2.8h-0.7h-0.7v-2.5
		c0-2.7-0.2-3.2-1.5-3c-1,0.1-1.4,1-1.4,3.5c0,1.9,0,2-0.5,2C185.5,113.9,185.5,113.7,185.5,110.6z M213.2,108.1
		c0-5.6,0-5.8,0.5-5.8c0.5,0,0.5,0.2,0.5,5.8c0,5.6,0,5.8-0.5,5.8C213.3,113.9,213.2,113.7,213.2,108.1z M224.9,111.1
		c0-1.7-0.1-2.8-0.3-2.8c-0.1,0-0.3-0.2-0.3-0.5s0.1-0.5,0.3-0.5s0.3-0.5,0.3-1.2c0-1.1,0.1-1.2,0.7-1.2c0.6,0,0.7,0.1,0.7,1.2
		c0,1,0.1,1.2,0.5,1.2c0.4,0,0.5,0.2,0.5,0.5s-0.2,0.5-0.5,0.5c-0.5,0-0.5,0.2-0.5,2.8v2.8h-0.7h-0.7V111.1z M229.4,111.1
		c0-1.7-0.1-2.8-0.3-2.8c-0.1,0-0.3-0.2-0.3-0.5s0.1-0.5,0.2-0.5s0.3-1,0.3-2.1c0.1-2.4,0.4-2.9,2-2.9c0.7,0,0.9,0.1,0.9,0.5
		c0,0.4-0.2,0.5-0.7,0.6c-0.7,0.1-0.7,0.1-0.8,2l-0.1,1.9h0.8c0.6,0,0.8,0.1,0.8,0.5c0,0.4-0.2,0.5-0.8,0.5h-0.8v2.8v2.8H230h-0.7
		V111.1z M241.3,110.6c0-3.1,0-3.3,0.5-3.3c0.3,0,0.5,0.1,0.5,0.3c0,0.2,0.2,0.2,0.5,0c0.3-0.2,0.8-0.3,1.2-0.3c1,0,0.8,0.9-0.2,1
		c-1.2,0.1-1.5,0.9-1.5,3.4c0,2,0,2.2-0.5,2.2C241.3,113.9,241.3,113.7,241.3,110.6z M246.3,110.6c0-3.1,0-3.3,0.5-3.3
		c0.3,0,0.5,0.1,0.5,0.3c0,0.2,0.2,0.2,0.5,0c0.8-0.4,1.9-0.3,2.4,0.2c0.5,0.4,0.5,0.4,1,0c0.4-0.3,0.8-0.4,1.7-0.4
		c1.6,0.1,2.1,1.1,2.1,4.2c0,2.3,0,2.3-0.7,2.3c-0.7,0-0.7,0-0.7-2.5c0-2.7-0.2-3.2-1.4-3c-0.9,0.1-1.3,1.2-1.3,3.5c0,1.9,0,2-0.5,2
		c-0.5,0-0.5-0.2-0.5-2.3c0-2.6-0.3-3.3-1.2-3.3c-1.1,0-1.5,0.9-1.5,3.4c0,2,0,2.2-0.5,2.2C246.3,113.9,246.3,113.7,246.3,110.6z
		 M79.4,105.3c-0.3-0.7,0.1-1.3,0.8-1.2c0.4,0.1,0.6,0.3,0.6,0.7s-0.2,0.7-0.6,0.7C79.8,105.7,79.5,105.6,79.4,105.3L79.4,105.3z
		 M97.9,105.3c-0.3-0.7,0.1-1.3,0.8-1.2c0.4,0.1,0.6,0.3,0.6,0.7s-0.2,0.7-0.6,0.7C98.3,105.7,98,105.6,97.9,105.3L97.9,105.3z
		 M182.1,105.3c-0.3-0.4-0.3-0.5,0.1-0.8c0.6-0.6,1.3-0.3,1.2,0.5C183.2,105.7,182.5,105.9,182.1,105.3z M82.4,98.5
		c-4.5-1.1-7.6-5.5-7.6-10.9c0-6.1,3.7-10.6,9-11.1c2.1-0.2,4.1,0.3,6,1.6l1.3,0.9l0.1-1l0.1-1l2.4-0.1l2.4-0.1v10.7v10.7l-2.4-0.1
		l-2.4-0.1l-0.1-0.9c0-0.5-0.1-0.9-0.2-0.9c-0.1,0-0.6,0.4-1.2,0.8C87.8,98.7,85,99.2,82.4,98.5L82.4,98.5z M87.5,94
		c2.5-0.9,4-3.2,4-6.4c0-2.2-0.5-3.6-1.7-4.9c-1.2-1.3-2.2-1.7-4-1.7c-2.3,0-3.9,1-5,3.1c-1.5,3-0.8,7.2,1.6,9
		C83.8,94.3,85.7,94.6,87.5,94L87.5,94z M141.3,98.5c-3.8-1-6.8-5-7.2-9.6c-0.5-5,1.9-9.6,5.9-11.6c1.3-0.6,1.9-0.7,3.6-0.7
		c2.5,0,4,0.5,5.8,1.9l1.2,0.9v-1.2v-1.2l2.4,0.1l2.4,0.1v10.6v10.6l-2.4,0.1l-2.4,0.1v-1.1v-1.1l-1.4,0.9
		C146.7,98.8,144.1,99.2,141.3,98.5z M146.8,94c2.5-0.7,4.3-4,4-7.2c-0.3-2.5-1.4-4.4-3.1-5.3c-2.2-1.1-4.5-0.9-6.4,0.8
		c-1.5,1.4-2.1,2.8-2.1,5.2C139.2,92.4,142.5,95.2,146.8,94z M56.3,79.9V61.6h2.5h2.5v11v11l3.4-3.4l3.4-3.4h3.2
		c1.8,0,3.2,0.1,3.2,0.1c0,0.1-2,2.1-4.5,4.6L65.5,86l4.9,6.1l4.9,6.1l-3,0.1c-1.6,0-3.1,0-3.3,0c-0.2-0.1-1.9-2.1-3.8-4.5
		c-2.6-3.3-3.5-4.3-3.7-4c-0.2,0.2-0.3,2-0.4,4.4l-0.1,4.1l-2.4,0.1l-2.4,0.1V79.9z M101.6,98.1c-0.1-0.1-0.2-3.8-0.2-8.3v-8.1h-0.8
		h-0.8v-2.4v-2.4h0.8h0.8l0-4.2c0-7.4,0.7-9.5,3.4-11c1.2-0.6,1.7-0.7,3.3-0.7c1.1,0,2.3,0.1,2.7,0.3l0.8,0.3v2.6v2.6l-1-0.5
		c-1.1-0.5-2.5-0.7-3.1-0.3c-0.8,0.5-1,1.6-1.1,6.2l-0.1,4.7h2.7h2.7v2.4v2.4h-2.6h-2.6V90v8.3h-2.3
		C102.9,98.3,101.7,98.2,101.6,98.1L101.6,98.1z M115.5,79.9V61.6h2.5h2.5v11v11l3.4-3.4l3.4-3.4h3.2c1.8,0,3.2,0.1,3.2,0.2
		s-2,2.1-4.5,4.5l-4.5,4.3l4.9,6c2.7,3.3,4.9,6.1,4.9,6.2c0,0.1-1.4,0.1-3.2,0.1h-3.2l-3.5-4.5c-2.7-3.4-3.6-4.4-3.8-4.2
		c-0.2,0.2-0.3,1.4-0.3,4.5v4.2H118h-2.5V79.9z M159.2,97.9c-0.9-0.4-1.7-1.6-1.7-2.5c0-2.7,3.1-4.1,5.1-2.3c1.5,1.4,1.1,4-0.7,4.8
		C160.7,98.4,160.2,98.4,159.2,97.9L159.2,97.9z M161.9,97.3c1-0.6,1.3-1.8,0.9-3c-0.3-0.8-1.4-1.6-2.2-1.6s-1.9,0.8-2.2,1.6
		C157.3,96.7,159.7,98.6,161.9,97.3z M159.6,95.3c0-1.8,0.2-2.1,1.3-1.4c0.6,0.3,0.7,1.3,0.1,1.5c-0.3,0.1-0.3,0.3,0.2,0.9
		c0.6,0.9,0.2,1-0.6,0.2l-0.5-0.6l0,0.6c0,0.3-0.1,0.6-0.3,0.6C159.7,97,159.6,96.2,159.6,95.3z M160.8,94.6c0-0.2-0.1-0.4-0.3-0.5
		c-0.2-0.1-0.3,0.1-0.3,0.5c0,0.3,0.1,0.5,0.3,0.5C160.6,95,160.8,94.8,160.8,94.6z M65,68.1c0-0.5,3-6.3,3.1-6.1
		c0.4,0.5,2.8,5.9,2.6,6.1c-0.3,0.3-1-0.1-1.2-0.8c-0.2-0.6-0.4-0.7-1.5-0.7c-1.2,0-1.3,0.1-1.6,0.8c-0.2,0.5-0.5,0.8-0.8,0.8
		C65.2,68.2,65,68.1,65,68.1z M68.7,65.5c0-0.6-0.7-1.6-0.9-1.3c-0.1,0.1-0.3,0.6-0.4,1c-0.3,0.7-0.2,0.7,0.5,0.7
		C68.4,65.8,68.7,65.7,68.7,65.5z M71.9,65.1v-3l1.1,0c1.3,0,1.6,0.1,2,1c0.5,0.9-0.1,2.1-1,2.3c-1.3,0.3-1.4,0.3-1.4,1.6
		c0,0.9-0.1,1.2-0.4,1.2C71.9,68.2,71.9,67.7,71.9,65.1L71.9,65.1z M73.9,64.4c0.4-0.4,0.4-1.2-0.1-1.4c-0.9-0.3-1.2-0.2-1.2,0.8
		c0,0.7,0.1,0.9,0.5,0.9C73.4,64.7,73.8,64.6,73.9,64.4z M75,68c0-0.3,2.7-6.1,2.9-6.1c0.1,0,2.6,5.3,2.7,5.9c0,0.1-0.1,0.3-0.4,0.4
		c-0.3,0.1-0.6-0.2-0.8-0.7c-0.3-0.8-0.4-0.8-1.6-0.8c-1.2,0-1.3,0.1-1.7,0.8C75.9,68.1,75,68.5,75,68L75,68z M78.7,65.7
		c0-0.1-0.2-0.5-0.4-1c-0.4-0.9-0.6-0.8-1,0.5c-0.2,0.5-0.1,0.6,0.6,0.6C78.4,65.8,78.7,65.7,78.7,65.7z M82.7,67.8
		c-2.2-1.1-2.2-4.5,0-5.6c1.4-0.7,3.1-0.3,3.1,0.7c0,0.4-0.1,0.5-0.5,0.3c-0.8-0.4-2-0.3-2.7,0.2c-0.5,0.4-0.6,0.8-0.6,1.6
		c0,1.8,1.2,2.6,3.1,2c0.6-0.2,0.7-0.1,0.7,0.2C85.9,68.1,84,68.5,82.7,67.8L82.7,67.8z M87.1,68c-0.1-0.1-0.2-1.5-0.2-3
		c0-2.7,0-2.9,0.5-2.9c0.4,0,0.5,0.2,0.5,1.1v1.1h1.3h1.3v-1.1c0-0.8,0.1-1.1,0.4-1.1c0.3,0,0.4,0.5,0.4,3c0,2.5-0.1,3-0.4,3
		c-0.3,0-0.4-0.3-0.4-1.5v-1.5h-1.3H88v1.5c0,1-0.1,1.5-0.4,1.5C87.4,68.2,87.2,68.1,87.1,68L87.1,68z M92.9,68
		c-0.1-0.1-0.2-1.5-0.2-3v-2.9h1.7c1.4,0,1.7,0.1,1.7,0.4c0,0.3-0.3,0.4-1.2,0.4c-1.1,0-1.2,0.1-1.2,0.7s0.1,0.7,1.2,0.7
		c1,0,1.2,0.1,1.2,0.5c0,0.5-0.2,0.5-1.2,0.5c-1.2,0-1.2,0-1.2,0.9s0,0.9,1.2,0.9c1,0,1.2,0.1,1.2,0.5c0,0.5-0.2,0.5-1.5,0.5
		C93.8,68.2,93,68.1,92.9,68L92.9,68z"/>
</g>
</svg>
